<?xml version="1.0" encoding="UTF-8" standalone="no"?>
<!-- Created with Inkscape (http://www.inkscape.org/) -->

<svg
   version="1.1"
   id="svg1"
   width="924.7334"
   height="924.73865"
   viewBox="0 0 924.7334 924.73865"
   xmlns="http://www.w3.org/2000/svg"
   xmlns:svg="http://www.w3.org/2000/svg">
  <defs
     id="defs1">
    <linearGradient
       x1="0"
       y1="0"
       x2="1"
       y2="0"
       gradientUnits="userSpaceOnUse"
       gradientTransform="matrix(6935.47,0,0,6935.47,13772,12963.5)"
       spreadMethod="pad"
       id="linearGradient4">
      <stop
         style="stop-opacity:1;stop-color:#f904ff"
         offset="0"
         id="stop3" />
      <stop
         style="stop-opacity:1;stop-color:#07e4ff"
         offset="1"
         id="stop4" />
    </linearGradient>
  </defs>
  <g
     id="g1"
     transform="translate(-1836.2666,-809.16003)">
    <path
       id="path3"
       d="m 17239.8,16431.3 c -1912.7,0 -3467.8,-1555.1 -3467.8,-3467.8 0,-1912.7 1555.1,-3467.74 3467.8,-3467.74 1912.7,0 3467.7,1555.04 3467.7,3467.74 0,1912.7 -1555,3467.8 -3467.7,3467.8 z m -497.1,-462.8 c -919.1,-531 -1573,-1471.3 -1710.9,-2570.4 -314.7,-228.8 -589.6,-509.2 -812.1,-828.6 -16.6,128.9 -25.2,260.4 -25.2,394 0,1515.1 1101.1,2768.3 2548.2,3005 z m 1114.3,-22 c 1387.5,-284.6 2428.1,-1510.2 2428.1,-2983 0,-287 -39.6,-564.6 -113.5,-827.7 -568.7,1139.5 -1746.4,1923.8 -3104.7,1923.8 -557.8,0 -1085.1,-132.4 -1552.3,-367.2 277.9,1135.3 1190.8,2018.6 2342.4,2254.1 z m -790.1,-2309.4 c 1340.9,0 2476.5,-862.4 2884,-2063.9 -414.3,-807.8 -1178.9,-1405.1 -2094.5,-1592.73 -1388.1,284.03 -2429.3,1509.73 -2429.3,2983.03 0,67.3 2.3,134.1 6.6,200.3 471.7,299.7 1031.8,473.3 1633.2,473.3 z M 15007,12836.4 c 44.5,-1230 732.1,-2298 1736,-2877.8 -1119,182.9 -2031.1,973.5 -2387.3,2023.1 165.4,322.7 386.7,611.8 651.3,854.7"
       style="fill:url(#linearGradient4);fill-opacity:1;fill-rule:nonzero;stroke:none"
       transform="matrix(0.13333333,0,0,-0.13333333,0,3000)" />
  </g>
</svg>
